<svg xmlns="http://www.w3.org/2000/svg" width="48" height="48" viewBox="0 0 12.7 12.7" id="bee"><path d="M4.203 1.059a.265.265 0 0 0-.12.037l-1.31.795a.265.265 0 0 0-.127.227v1.588a.265.265 0 0 0 .127.226l1.324.793a.265.265 0 0 0 .274 0l1.308-.795a.265.265 0 0 0 .129-.222L5.82 2.12a.265.265 0 0 0-.13-.23l-1.335-.794a.265.265 0 0 0-.152-.037Zm3.968 0a.265.265 0 0 0-.12.037l-1.31.795a.265.265 0 0 0-.127.227v1.588a.265.265 0 0 0 .127.226l1.324.793a.265.265 0 0 0 .274 0l1.309-.795a.265.265 0 0 0 .128-.222l.012-1.588a.265.265 0 0 0-.129-.23l-1.336-.794a.265.265 0 0 0-.152-.037Zm-5.556 3.44a.265.265 0 0 0-.12.039l-1.31.792a.265.265 0 0 0-.127.227v1.588a.265.265 0 0 0 .129.226l1.322.793a.265.265 0 0 0 .274 0l1.308-.795a.265.265 0 0 0 .13-.222l.01-1.588a.265.265 0 0 0-.128-.23l-1.336-.794a.265.265 0 0 0-.152-.037Zm3.705 0a.265.265 0 0 0-.122.039L4.89 5.33a.265.265 0 0 0-.13.227v1.588a.265.265 0 0 0 .13.226l1.324.793a.265.265 0 0 0 .272 0l1.31-.795a.265.265 0 0 0 .127-.222l.014-1.588a.265.265 0 0 0-.129-.23l-1.336-.794a.265.265 0 0 0-.152-.037Zm3.703 0a.265.265 0 0 0-.12.039l-1.31.792a.265.265 0 0 0-.127.227v1.588a.265.265 0 0 0 .129.226l1.322.793a.265.265 0 0 0 .274 0l1.31-.795a.265.265 0 0 0 .127-.222l.014-1.588a.265.265 0 0 0-.131-.23l-1.336-.794a.265.265 0 0 0-.152-.037ZM4.23 7.936a.265.265 0 0 0-.027 0 .265.265 0 0 0-.12.04l-1.31.793a.265.265 0 0 0-.127.227v1.587a.265.265 0 0 0 .127.227l1.324.792a.265.265 0 0 0 .274 0l1.308-.792a.265.265 0 0 0 .129-.225l.012-1.588a.265.265 0 0 0-.13-.23l-1.335-.793a.265.265 0 0 0-.125-.038Zm3.968 0a.265.265 0 0 0-.027 0 .265.265 0 0 0-.12.04l-1.31.793a.265.265 0 0 0-.127.227v1.587a.265.265 0 0 0 .127.227l1.324.792a.265.265 0 0 0 .274 0l1.309-.792a.265.265 0 0 0 .128-.225l.012-1.588a.265.265 0 0 0-.129-.23l-1.336-.793a.265.265 0 0 0-.125-.038Z" color="#000" font-family="sans-serif" font-weight="400" overflow="visible" style="line-height:normal;font-variant-ligatures:normal;font-variant-position:normal;font-variant-caps:normal;font-variant-numeric:normal;font-variant-alternates:normal;font-feature-settings:normal;text-indent:0;text-align:start;text-decoration-line:none;text-decoration-style:solid;text-decoration-color:#000;text-transform:none;text-orientation:mixed;shape-padding:0;isolation:auto;mix-blend-mode:normal"></path></svg>